<svg xmlns="http://www.w3.org/2000/svg" viewBox="0 0 100 100">
  <!-- Rear wheel — gold rim, dark fill -->
  <circle cx="24" cy="65" r="19" fill="none" stroke="#e8e4de" stroke-width="2.8"/>
  <circle cx="24" cy="65" r="16" fill="none" stroke="#6b6b6b" stroke-width="0.6"/>
  <circle cx="24" cy="65" r="3.5" fill="#c8973a"/>
  <!-- Spokes -->
  <line x1="24" y1="46" x2="24" y2="84" stroke="#e8e4de" stroke-width="1.2"/>
  <line x1="5" y1="65" x2="43" y2="65" stroke="#e8e4de" stroke-width="1.2"/>
  <line x1="11" y1="52" x2="37" y2="78" stroke="#e8e4de" stroke-width="1.2"/>
  <line x1="37" y1="52" x2="11" y2="78" stroke="#e8e4de" stroke-width="1.2"/>
  <!-- Front wheel -->
  <circle cx="76" cy="65" r="19" fill="none" stroke="#e8e4de" stroke-width="2.8"/>
  <circle cx="76" cy="65" r="16" fill="none" stroke="#6b6b6b" stroke-width="0.6"/>
  <circle cx="76" cy="65" r="3.5" fill="#c8973a"/>
  <line x1="76" y1="46" x2="76" y2="84" stroke="#e8e4de" stroke-width="1.2"/>
  <line x1="57" y1="65" x2="95" y2="65" stroke="#e8e4de" stroke-width="1.2"/>
  <line x1="63" y1="52" x2="89" y2="78" stroke="#e8e4de" stroke-width="1.2"/>
  <line x1="89" y1="52" x2="63" y2="78" stroke="#e8e4de" stroke-width="1.2"/>
  <!-- FRAME — GOLD, thick & bold -->
  <line x1="24" y1="65" x2="50" y2="67" stroke="#c8973a" stroke-width="4" stroke-linecap="round"/>
  <line x1="50" y1="67" x2="44" y2="39" stroke="#c8973a" stroke-width="4" stroke-linecap="round"/>
  <line x1="44" y1="39" x2="24" y2="65" stroke="#a37a2e" stroke-width="3.2" stroke-linecap="round"/>
  <line x1="44" y1="39" x2="71" y2="40" stroke="#c8973a" stroke-width="4" stroke-linecap="round"/>
  <line x1="73" y1="52" x2="50" y2="67" stroke="#c8973a" stroke-width="4" stroke-linecap="round"/>
  <!-- Head tube -->
  <line x1="71" y1="40" x2="73" y2="52" stroke="#dbb568" stroke-width="5.5" stroke-linecap="round"/>
  <!-- Fork -->
  <line x1="73" y1="52" x2="76" y2="65" stroke="#c8973a" stroke-width="3.2" stroke-linecap="round"/>
  <!-- BB -->
  <circle cx="50" cy="67" r="5" fill="#c8973a" stroke="#dbb568" stroke-width="1.5"/>
  <!-- Cranks & Pedals -->
  <line x1="50" y1="67" x2="56" y2="74" stroke="#e8e4de" stroke-width="2.5" stroke-linecap="round"/>
  <line x1="50" y1="67" x2="44" y2="60" stroke="#e8e4de" stroke-width="2.5" stroke-linecap="round"/>
  <rect x="54" y="73" width="8" height="2.5" rx="1" fill="#e8e4de"/>
  <rect x="38" y="58" width="8" height="2.5" rx="1" fill="#e8e4de"/>
  <!-- Saddle -->
  <path d="M36 36 Q44 31 52 36" fill="none" stroke="#e8e4de" stroke-width="3.5" stroke-linecap="round"/>
  <line x1="44" y1="36" x2="44" y2="39" stroke="#e8e4de" stroke-width="2.5" stroke-linecap="round"/>
  <!-- Handlebars -->
  <path d="M68 36 L73 40 L78 36" fill="none" stroke="#e8e4de" stroke-width="2.5" stroke-linecap="round" stroke-linejoin="round"/>
  <line x1="73" y1="40" x2="73" y2="44" stroke="#e8e4de" stroke-width="2.5" stroke-linecap="round"/>
</svg>
